<svg width="21" height="20" viewBox="0 0 21 20" fill="none" xmlns="http://www.w3.org/2000/svg">
<path d="M4.78929 20H0.642857V6.64702H4.78929V20ZM2.71384 4.82555C1.38795 4.82555 0.3125 3.72732 0.3125 2.40139C0.3125 1.7645 0.565498 1.1537 1.01584 0.703352C1.46617 0.253003 2.07696 0 2.71384 0C3.35071 0 3.9615 0.253003 4.41184 0.703352C4.86218 1.1537 5.11518 1.7645 5.11518 2.40139C5.11518 3.72732 4.03929 4.82555 2.71384 4.82555ZM20.308 20H16.1705V13.4999C16.1705 11.9507 16.1393 9.96406 14.0147 9.96406C11.8589 9.96406 11.5286 11.6471 11.5286 13.3882V20H7.38661V6.64702H11.3634V8.46849H11.4214C11.975 7.41936 13.3272 6.31219 15.3446 6.31219C19.5411 6.31219 20.3125 9.07565 20.3125 12.665V20H20.308Z" fill="black"/>
</svg>
