<svg xmlns="http://www.w3.org/2000/svg" color-interpolation-filters="sRGB" style="margin:auto" version="1.0"
    viewBox="0 0 340 250">
    <g class="pmspacesvg" mask="url(#a)" transform="translate(93.097 48.14)">
        <path fill-opacity=".5" d="m45.12 21.46 98.686 17.4-16.726 94.858-98.686-17.4z" data-gra="graph-name" />
        <path d="M10 20h100.209v96.321H10z" data-gra="graph-name" />
        <g fill-opacity="0">
            <path fill="none" d="M10 20h100.209v96.321H10z" class="i-icon-bg" data-gra="graph-name-bg" />
            <g fill-opacity="1" class="tp-name" data-gra="path-name">
                <path
                    d="M24.085 34.747q.014.553.324.993.31.443.818.84.508.394 1.153.77.645.375 1.326.79.677.416 1.323.905.648.486 1.16 1.107.516.618.832 1.396.316.778.343 1.768v.106q0 1.08-.264 1.884-.265.805-.7 1.385-.434.578-1.015.956-.58.376-1.218.6-.64.224-1.293.316-.653.091-1.231.105h-.132q-1.12 0-1.966-.224-.842-.224-1.45-.6-.607-.375-1.007-.864-.402-.488-.64-1.007-.237-.52-.343-1.037-.105-.513-.105-.96 0-.462.157-.805.159-.343.415-.562.257-.216.594-.321.335-.106.705-.106.343 0 .705.106.364.105.659.321.297.219.488.554.192.337.205.785.027.988.449 1.353.42.362 1.212.362.394-.014.732-.1.337-.087.572-.303.238-.218.378-.58.138-.362.138-.915 0-.686-.31-1.24-.311-.553-.81-1.028-.503-.476-1.148-.905-.646-.426-1.318-.856t-1.312-.896q-.64-.467-1.153-1.02-.516-.557-.826-1.23-.308-.672-.321-1.528v-.21q.013-1.412.375-2.346.362-.937 1.066-1.49.708-.554 1.736-.787Q24.414 30 25.748 30h.343q1.212 0 2.055.265.845.261 1.404.672.561.408.883.92.324.516.483 1.016.157.502.197.937.04.434.04.699 0 .394-.153.718-.151.324-.408.548-.256.224-.607.349-.349.124-.756.124-.319 0-.635-.124-.316-.125-.567-.324-.248-.197-.408-.454-.159-.256-.159-.521 0-1.08-.389-1.504-.389-.421-1.14-.421-.356 0-.69.04-.338.04-.594.216-.257.178-.408.548-.154.37-.154 1.043ZM34.132 45.53V33.137q0-.567.054-1.107.051-.54.256-.969.203-.43.6-.691.394-.265 1.093-.265.686 0 1.088.265.403.262.608.691.202.43.256.97.052.54.052 1.106v4.14h3.612v-4.14q0-.567.054-1.107.051-.54.257-.969.205-.43.6-.691.396-.265 1.095-.265.683 0 1.086.265.402.262.607.691.205.43.257.97.054.54.054 1.106V45.53q0 .58-.054 1.12-.052.54-.257.97-.205.43-.607.686-.403.257-1.086.257-.699 0-1.096-.257-.394-.256-.6-.686-.205-.43-.256-.97-.054-.54-.054-1.12v-4.376H38.14v4.376q0 .58-.052 1.12-.054.54-.256.97-.205.43-.608.686-.402.257-1.088.257-.7 0-1.093-.257-.397-.256-.6-.686-.205-.43-.256-.97-.054-.54-.054-1.12Zm20.593-11.996L52.773 40.6h4.193l-1.952-7.066h-.29Zm3.585-.95 2.743 9.307q.027.896.065 1.833.04.937.04 1.806v.395q0 .502-.032.969-.035.47-.205.845-.173.375-.54.6-.37.224-1.042.224-.686 0-1.056-.225-.367-.224-.545-.594-.178-.367-.21-.842-.036-.475-.036-.977V44.08H52.22v1.844q0 .502-.032.977-.033.475-.21.842-.18.37-.549.594-.367.225-1.053.225-.686 0-1.056-.225-.37-.224-.54-.599-.173-.375-.197-.845-.027-.467-.027-.97v-.394q0-.407.006-.869.008-.462.021-.937.014-.475.024-.942l.027-.891q.66-2.292 1.386-4.647.723-2.352 1.385-4.66.13-.489.316-.942.183-.457.486-.791.305-.338.777-.54.475-.206 1.215-.206h1.318q.726 0 1.207.206.48.202.783.54.305.334.483.79.175.454.321.943Zm14.923-2.4q.37 0 .694.132.321.132.58.362.257.232.44.556.187.321.265.691l2.268 10.52h.448q.554-2.571 1.134-5.252.581-2.684 1.159-5.268.119-.502.356-.91.21-.343.586-.626.378-.284.983-.284.462 0 .813.165.348.165.577.421.233.26.343.562.114.302.114.594 0 .156-.014.302-.013.146-.04.251-.025.13-.052.238L80.275 46.98q-.197.449-.527.791-.278.303-.72.549-.44.243-1.1.243h-.448q-.659 0-1.082-.243-.422-.246-.673-.549-.289-.342-.434-.79l-1.845-7.725h-.448q-.424 1.87-.904 3.86-.48 1.993-.916 3.864-.172.449-.461.791-.265.303-.68.549-.414.243-1.075.243h-.448q-.66 0-1.113-.243-.456-.246-.745-.549-.343-.342-.54-.79l-3.561-14.343q-.025-.108-.052-.238-.027-.105-.04-.25-.014-.147-.014-.303 0-.292.114-.594.11-.303.343-.562.23-.256.58-.421.348-.165.81-.165.608 0 .983.284.375.283.586.626.237.408.356.91l2.293 10.52h.448q.25-1.213.542-2.55l.586-2.702q.297-1.366.594-2.703.297-1.34.573-2.565.183-.75.713-1.247.526-.494 1.263-.494Zm18.749 1.557 4.193 11.365h.316V32.163q0-.421.051-.8.054-.375.232-.65.179-.278.527-.443.348-.165.956-.165.672 0 1.06.165.39.165.587.443.2.275.25.65.055.378.055.8V45.53q0 .58-.033 1.12-.035.54-.213.97-.178.43-.578.686-.402.257-1.128.257h-1.739q-.621 0-1.037-.243-.416-.246-.691-.594-.278-.349-.443-.732-.165-.384-.256-.645l-3.983-10.784h-.316v10.94q0 .424-.051.8-.054.375-.232.65-.178.278-.527.443-.348.165-.956.165-.685 0-1.08-.165-.396-.165-.594-.443-.197-.275-.25-.65-.052-.376-.052-.8V33.137q0-.567.032-1.112.033-.548.216-.977.187-.43.59-.686.401-.257 1.138-.257h1.742q.659 0 1.072.257.416.256.68.561.29.357.462.819Z" />
                <path
                    d="M32.446 63.928q.04 1.685.984 3.031.941 1.346 2.488 2.55 1.546 1.205 3.511 2.347 1.968 1.145 4.035 2.409 2.07 1.264 4.035 2.751 1.967 1.484 3.534 3.37 1.566 1.889 2.527 4.255.965 2.37 1.044 5.38v.323q0 3.291-.8 5.74-.803 2.448-2.13 4.215-1.325 1.767-3.09 2.91-1.767 1.144-3.715 1.826-1.945.684-3.933.964-1.987.28-3.754.322h-.402q-3.41 0-5.98-.684-2.57-.681-4.416-1.826-1.846-1.143-3.07-2.63-1.225-1.484-1.948-3.07-.721-1.586-1.044-3.153Q20 93.395 20 92.03q0-1.405.483-2.448.481-1.044 1.264-1.708.783-.662 1.807-.981 1.023-.322 2.149-.322 1.043 0 2.146.322 1.105.32 2.007.981.905.664 1.487 1.688.58 1.023.622 2.389.08 3.008 1.363 4.114 1.286 1.102 3.695 1.102 1.205-.04 2.228-.3 1.024-.26 1.745-.924.724-.661 1.145-1.764.421-1.106.421-2.79 0-2.09-.944-3.775-.942-1.685-2.468-3.13-1.524-1.445-3.492-2.751-1.968-1.303-4.015-2.61-2.047-1.303-3.995-2.728-1.945-1.425-3.512-3.113-1.566-1.685-2.51-3.732-.942-2.047-.981-4.657v-.641q.04-4.298 1.142-7.148 1.105-2.85 3.251-4.535 2.15-1.685 5.279-2.389 3.133-.701 7.187-.701h1.043q3.693 0 6.263.803t4.275 2.047q1.707 1.244 2.691 2.81.981 1.564 1.465 3.09.48 1.524.602 2.85.119 1.326.119 2.126 0 1.205-.46 2.189-.462.984-1.245 1.668-.783.681-1.846 1.063-1.066.382-2.31.382-.961 0-1.926-.382-.964-.382-1.727-.984-.76-.602-1.244-1.385-.48-.783-.48-1.586 0-3.291-1.185-4.575-1.185-1.286-3.472-1.286-1.086 0-2.11.121-1.023.119-1.806.662-.78.543-1.244 1.665-.461 1.125-.461 3.172Zm67.763 21.276v17.102q0 .52-.102 1.205-.1.681-.52 1.303-.422.622-1.225 1.063-.803.444-2.168.444-1.524 0-2.41-.421-.881-.424-1.345-1.046-.46-.622-.6-1.303-.14-.682-.14-1.245v-2.408q-1.929 2.85-4.917 4.636-2.992 1.787-7.368 1.787-.764 0-2.37-.121-1.606-.122-3.61-.642-2.008-.523-4.137-1.566-2.126-1.044-3.873-2.91-1.747-1.869-2.87-4.656-1.125-2.79-1.125-6.806V67.14q0-3.29.803-5.821.803-2.528 2.109-4.397 1.303-1.866 2.989-3.13 1.687-1.264 3.452-2.106 4.097-1.928 9.355-2.208 4.456 0 7.626 1.004 3.172 1.003 5.38 2.606 2.208 1.606 3.531 3.633 1.326 2.028 2.05 4.117.721 2.087.942 4.015.22 1.925.22 3.33 0 .603-.099 1.465-.101.865-.704 1.645-.602.784-1.905 1.327-1.307.542-3.713.542-.845 0-2.07-.101-1.223-.1-2.346-.5-1.125-.402-1.928-1.186-.803-.783-.803-2.148 0-2.166-.26-3.874-.26-1.705-.945-2.91-.68-1.203-1.885-1.826-1.205-.622-3.09-.622-1.968 0-3.032.803-1.065.803-1.546 1.765-.563 1.125-.642 2.57v25.692q0 1.283.461 2.409.46 1.122 1.306 1.967.843.843 1.985 1.324 1.145.483 2.51.483 1.607 0 2.91-.704 1.306-.701 2.35-1.886 1.043-1.184 1.866-2.691.822-1.505 1.464-3.15h-3.854q-1.164-.122-2.047-.602-.803-.402-1.425-1.205t-.622-2.208q0-1.524.622-2.35.622-.822 1.425-1.224.883-.44 2.047-.52h10.439q.28 0 .902.1t1.286.582q.662.483 1.162 1.425.504.944.504 2.629Z"
                    data-gra="path-name-1" />
            </g>
        </g>
    </g>
    <mask id="a">
        <g fill="#fff">
            <path d="m45.12 21.46 98.686 17.4-16.726 94.858-98.686-17.4z" data-gra="graph-name" />
            <path d="M10 20h100.209v96.321H10z" data-gra="graph-name" />
        </g>
        <g fill-opacity="0">
            <path stroke-width="2" d="M10 20h100.209v96.321H10z" class="i-icon-bg" data-gra="graph-name-bg" />
            <g fill-opacity="1" class="tp-name" data-gra="path-name">
                <g transform="translate(0 -4)">
                    <path
                        d="M24.085 34.747q.014.553.324.993.31.443.818.84.508.394 1.153.77.645.375 1.326.79.677.416 1.323.905.648.486 1.16 1.107.516.618.832 1.396.316.778.343 1.768v.106q0 1.08-.264 1.884-.265.805-.7 1.385-.434.578-1.015.956-.58.376-1.218.6-.64.224-1.293.316-.653.091-1.231.105h-.132q-1.12 0-1.966-.224-.842-.224-1.45-.6-.607-.375-1.007-.864-.402-.488-.64-1.007-.237-.52-.343-1.037-.105-.513-.105-.96 0-.462.157-.805.159-.343.415-.562.257-.216.594-.321.335-.106.705-.106.343 0 .705.106.364.105.659.321.297.219.488.554.192.337.205.785.027.988.449 1.353.42.362 1.212.362.394-.014.732-.1.337-.087.572-.303.238-.218.378-.58.138-.362.138-.915 0-.686-.31-1.24-.311-.553-.81-1.028-.503-.476-1.148-.905-.646-.426-1.318-.856t-1.312-.896q-.64-.467-1.153-1.02-.516-.557-.826-1.23-.308-.672-.321-1.528v-.21q.013-1.412.375-2.346.362-.937 1.066-1.49.708-.554 1.736-.787Q24.414 30 25.748 30h.343q1.212 0 2.055.265.845.261 1.404.672.561.408.883.92.324.516.483 1.016.157.502.197.937.04.434.04.699 0 .394-.153.718-.151.324-.408.548-.256.224-.607.349-.349.124-.756.124-.319 0-.635-.124-.316-.125-.567-.324-.248-.197-.408-.454-.159-.256-.159-.521 0-1.08-.389-1.504-.389-.421-1.14-.421-.356 0-.69.04-.338.04-.594.216-.257.178-.408.548-.154.37-.154 1.043ZM34.132 45.53V33.137q0-.567.054-1.107.051-.54.256-.969.203-.43.6-.691.394-.265 1.093-.265.686 0 1.088.265.403.262.608.691.202.43.256.97.052.54.052 1.106v4.14h3.612v-4.14q0-.567.054-1.107.051-.54.257-.969.205-.43.6-.691.396-.265 1.095-.265.683 0 1.086.265.402.262.607.691.205.43.257.97.054.54.054 1.106V45.53q0 .58-.054 1.12-.052.54-.257.97-.205.43-.607.686-.403.257-1.086.257-.699 0-1.096-.257-.394-.256-.6-.686-.205-.43-.256-.97-.054-.54-.054-1.12v-4.376H38.14v4.376q0 .58-.052 1.12-.054.54-.256.97-.205.43-.608.686-.402.257-1.088.257-.7 0-1.093-.257-.397-.256-.6-.686-.205-.43-.256-.97-.054-.54-.054-1.12Zm20.593-11.996L52.773 40.6h4.193l-1.952-7.066h-.29Zm3.585-.95 2.743 9.307q.027.896.065 1.833.04.937.04 1.806v.395q0 .502-.032.969-.035.47-.205.845-.173.375-.54.6-.37.224-1.042.224-.686 0-1.056-.225-.367-.224-.545-.594-.178-.367-.21-.842-.036-.475-.036-.977V44.08H52.22v1.844q0 .502-.032.977-.033.475-.21.842-.18.37-.549.594-.367.225-1.053.225-.686 0-1.056-.225-.37-.224-.54-.599-.173-.375-.197-.845-.027-.467-.027-.97v-.394q0-.407.006-.869.008-.462.021-.937.014-.475.024-.942l.027-.891q.66-2.292 1.386-4.647.723-2.352 1.385-4.66.13-.489.316-.942.183-.457.486-.791.305-.338.777-.54.475-.206 1.215-.206h1.318q.726 0 1.207.206.48.202.783.54.305.334.483.79.175.454.321.943Zm14.923-2.4q.37 0 .694.132.321.132.58.362.257.232.44.556.187.321.265.691l2.268 10.52h.448q.554-2.571 1.134-5.252.581-2.684 1.159-5.268.119-.502.356-.91.21-.343.586-.626.378-.284.983-.284.462 0 .813.165.348.165.577.421.233.26.343.562.114.302.114.594 0 .156-.014.302-.013.146-.04.251-.025.13-.052.238L80.275 46.98q-.197.449-.527.791-.278.303-.72.549-.44.243-1.1.243h-.448q-.659 0-1.082-.243-.422-.246-.673-.549-.289-.342-.434-.79l-1.845-7.725h-.448q-.424 1.87-.904 3.86-.48 1.993-.916 3.864-.172.449-.461.791-.265.303-.68.549-.414.243-1.075.243h-.448q-.66 0-1.113-.243-.456-.246-.745-.549-.343-.342-.54-.79l-3.561-14.343q-.025-.108-.052-.238-.027-.105-.04-.25-.014-.147-.014-.303 0-.292.114-.594.11-.303.343-.562.23-.256.58-.421.348-.165.81-.165.608 0 .983.284.375.283.586.626.237.408.356.91l2.293 10.52h.448q.25-1.213.542-2.55l.586-2.702q.297-1.366.594-2.703.297-1.34.573-2.565.183-.75.713-1.247.526-.494 1.263-.494Zm18.749 1.557 4.193 11.365h.316V32.163q0-.421.051-.8.054-.375.232-.65.179-.278.527-.443.348-.165.956-.165.672 0 1.06.165.39.165.587.443.2.275.25.65.055.378.055.8V45.53q0 .58-.033 1.12-.035.54-.213.97-.178.43-.578.686-.402.257-1.128.257h-1.739q-.621 0-1.037-.243-.416-.246-.691-.594-.278-.349-.443-.732-.165-.384-.256-.645l-3.983-10.784h-.316v10.94q0 .424-.051.8-.054.375-.232.65-.178.278-.527.443-.348.165-.956.165-.685 0-1.08-.165-.396-.165-.594-.443-.197-.275-.25-.65-.052-.376-.052-.8V33.137q0-.567.032-1.112.033-.548.216-.977.187-.43.59-.686.401-.257 1.138-.257h1.742q.659 0 1.072.257.416.256.68.561.29.357.462.819Z" />

                </g>
                <path
                    d="M32.446 63.928q.04 1.685.984 3.031.941 1.346 2.488 2.55 1.546 1.205 3.511 2.347 1.968 1.145 4.035 2.409 2.07 1.264 4.035 2.751 1.967 1.484 3.534 3.37 1.566 1.889 2.527 4.255.965 2.37 1.044 5.38v.323q0 3.291-.8 5.74-.803 2.448-2.13 4.215-1.325 1.767-3.09 2.91-1.767 1.144-3.715 1.826-1.945.684-3.933.964-1.987.28-3.754.322h-.402q-3.41 0-5.98-.684-2.57-.681-4.416-1.826-1.846-1.143-3.07-2.63-1.225-1.484-1.948-3.07-.721-1.586-1.044-3.153Q20 93.395 20 92.03q0-1.405.483-2.448.481-1.044 1.264-1.708.783-.662 1.807-.981 1.023-.322 2.149-.322 1.043 0 2.146.322 1.105.32 2.007.981.905.664 1.487 1.688.58 1.023.622 2.389.08 3.008 1.363 4.114 1.286 1.102 3.695 1.102 1.205-.04 2.228-.3 1.024-.26 1.745-.924.724-.661 1.145-1.764.421-1.106.421-2.79 0-2.09-.944-3.775-.942-1.685-2.468-3.13-1.524-1.445-3.492-2.751-1.968-1.303-4.015-2.61-2.047-1.303-3.995-2.728-1.945-1.425-3.512-3.113-1.566-1.685-2.51-3.732-.942-2.047-.981-4.657v-.641q.04-4.298 1.142-7.148 1.105-2.85 3.251-4.535 2.15-1.685 5.279-2.389 3.133-.701 7.187-.701h1.043q3.693 0 6.263.803t4.275 2.047q1.707 1.244 2.691 2.81.981 1.564 1.465 3.09.48 1.524.602 2.85.119 1.326.119 2.126 0 1.205-.46 2.189-.462.984-1.245 1.668-.783.681-1.846 1.063-1.066.382-2.31.382-.961 0-1.926-.382-.964-.382-1.727-.984-.76-.602-1.244-1.385-.48-.783-.48-1.586 0-3.291-1.185-4.575-1.185-1.286-3.472-1.286-1.086 0-2.11.121-1.023.119-1.806.662-.78.543-1.244 1.665-.461 1.125-.461 3.172Zm67.763 21.276v17.102q0 .52-.102 1.205-.1.681-.52 1.303-.422.622-1.225 1.063-.803.444-2.168.444-1.524 0-2.41-.421-.881-.424-1.345-1.046-.46-.622-.6-1.303-.14-.682-.14-1.245v-2.408q-1.929 2.85-4.917 4.636-2.992 1.787-7.368 1.787-.764 0-2.37-.121-1.606-.122-3.61-.642-2.008-.523-4.137-1.566-2.126-1.044-3.873-2.91-1.747-1.869-2.87-4.656-1.125-2.79-1.125-6.806V67.14q0-3.29.803-5.821.803-2.528 2.109-4.397 1.303-1.866 2.989-3.13 1.687-1.264 3.452-2.106 4.097-1.928 9.355-2.208 4.456 0 7.626 1.004 3.172 1.003 5.38 2.606 2.208 1.606 3.531 3.633 1.326 2.028 2.05 4.117.721 2.087.942 4.015.22 1.925.22 3.33 0 .603-.099 1.465-.101.865-.704 1.645-.602.784-1.905 1.327-1.307.542-3.713.542-.845 0-2.07-.101-1.223-.1-2.346-.5-1.125-.402-1.928-1.186-.803-.783-.803-2.148 0-2.166-.26-3.874-.26-1.705-.945-2.91-.68-1.203-1.885-1.826-1.205-.622-3.09-.622-1.968 0-3.032.803-1.065.803-1.546 1.765-.563 1.125-.642 2.57v25.692q0 1.283.461 2.409.46 1.122 1.306 1.967.843.843 1.985 1.324 1.145.483 2.51.483 1.607 0 2.91-.704 1.306-.701 2.35-1.886 1.043-1.184 1.866-2.691.822-1.505 1.464-3.15h-3.854q-1.164-.122-2.047-.602-.803-.402-1.425-1.205t-.622-2.208q0-1.524.622-2.35.622-.822 1.425-1.224.883-.44 2.047-.52h10.439q.28 0 .902.1t1.286.582q.662.483 1.162 1.425.504.944.504 2.629Z"
                    data-gra="path-name-1" />
            </g>
        </g>
    </mask>
</svg>