<svg width="21" height="21" viewBox="0 0 21 21" fill="none" xmlns="http://www.w3.org/2000/svg">
<path d="M19.7421 14.9086L15.3671 13.0336C15.1802 12.9539 14.9724 12.9371 14.7752 12.9857C14.5779 13.0343 14.4018 13.1457 14.2733 13.3031L12.3358 15.6703C9.29498 14.2366 6.84785 11.7895 5.41415 8.74871L7.78138 6.81118C7.93907 6.68293 8.05068 6.50679 8.09931 6.30943C8.14795 6.11208 8.13096 5.90425 8.05092 5.71741L6.17588 1.34233C6.08804 1.14093 5.93266 0.976484 5.73656 0.877362C5.54046 0.77824 5.31591 0.750652 5.10165 0.799353L1.03908 1.73687C0.832497 1.78457 0.648188 1.90089 0.516228 2.06683C0.384269 2.23277 0.312452 2.43854 0.3125 2.65056C0.3125 12.6703 8.43373 20.7759 18.4378 20.7759C18.6499 20.776 18.8558 20.7042 19.0218 20.5723C19.1878 20.4403 19.3042 20.2559 19.3519 20.0493L20.2894 15.9867C20.3378 15.7714 20.3096 15.546 20.2097 15.3492C20.1098 15.1524 19.9445 14.9966 19.7421 14.9086Z" fill="black"/>
</svg>
