<svg width="21" height="20" viewBox="0 0 21 20" fill="none" xmlns="http://www.w3.org/2000/svg">
<path d="M5.86806 17.5C4.97917 17.5 4.09028 16.625 3.64583 16.25C1.42361 14.5 0.756944 13.875 0.3125 13.5V18.75C0.3125 19.4402 0.810069 20 1.42361 20H10.3125C10.926 20 11.4236 19.4402 11.4236 18.75V13.5C10.9792 13.875 10.3125 14.5 8.09028 16.25C7.64583 16.625 6.75694 17.5 5.86806 17.5ZM10.3125 10H1.42361C0.810069 10 0.3125 10.5598 0.3125 11.25V11.875C1.20139 12.625 1.09028 12.625 4.3125 15.25C4.64583 15.5 5.3125 16.25 5.86806 16.25C6.42361 16.25 7.09028 15.5 7.42361 15.375C10.6458 12.75 10.5347 12.75 11.4236 12V11.25C11.4236 10.5598 10.926 10 10.3125 10ZM19.2014 6.25H8.09028C7.47674 6.25 6.97917 6.80977 6.97917 7.5V8.75H10.3125C11.4656 8.75 12.4163 9.74297 12.5247 11.0086L12.5347 11V16.25H19.2014C19.8149 16.25 20.3125 15.6902 20.3125 15V7.5C20.3125 6.80977 19.8149 6.25 19.2014 6.25ZM18.0903 11.25H15.8681V8.75H18.0903V11.25ZM5.86806 7.5C5.86806 6.12148 6.86493 5 8.09028 5H15.8681V1.25C15.8681 0.559766 15.3705 0 14.7569 0H3.64583C3.03229 0 2.53472 0.559766 2.53472 1.25V8.75H5.86806V7.5Z" fill="black"/>
</svg>
